<?xml version="1.0" encoding="UTF-8" standalone="no"?>
<!-- Created with Inkscape (http://www.inkscape.org/) -->

<svg
   width="123.64721mm"
   height="69.150154mm"
   viewBox="0 0 123.64721 69.150154"
   version="1.1"
   id="svg1"
   inkscape:version="1.4 (e7c3feb100, 2024-10-09)"
   sodipodi:docname="logo.svg"
   xmlns:inkscape="http://www.inkscape.org/namespaces/inkscape"
   xmlns:sodipodi="http://sodipodi.sourceforge.net/DTD/sodipodi-0.dtd"
   xmlns="http://www.w3.org/2000/svg"
   xmlns:svg="http://www.w3.org/2000/svg">
  <sodipodi:namedview
     id="namedview1"
     pagecolor="#ffffff"
     bordercolor="#000000"
     borderopacity="0.25"
     inkscape:showpageshadow="2"
     inkscape:pageopacity="0.0"
     inkscape:pagecheckerboard="0"
     inkscape:deskcolor="#d1d1d1"
     inkscape:document-units="mm"
     inkscape:zoom="1"
     inkscape:cx="187.5"
     inkscape:cy="210.5"
     inkscape:window-width="1707"
     inkscape:window-height="989"
     inkscape:window-x="0"
     inkscape:window-y="0"
     inkscape:window-maximized="1"
     inkscape:current-layer="layer1" />
  <defs
     id="defs1" />
  <g
     inkscape:label="图层 1"
     inkscape:groupmode="layer"
     id="layer1"
     transform="translate(-18.620316,-1.9)">
    <path
       style="font-size:25.4px;font-family:serif;-inkscape-font-specification:serif;stroke-width:1.6;stroke-linecap:round;stroke-linejoin:bevel;stroke-dasharray:1.6, 3.2"
       d="m 28.602516,62.541153 2.9972,0.254 c 0.0508,1.778 0.0762,3.5052 0.0762,5.2832 v 1.3716 c -1.1176,0.4826 -2.2352,0.7112 -3.5052,0.7112 -4.2672,0 -7.1374,-3.3528 -7.1374,-8.763 0,-5.5372 2.9972,-8.763 7.239,-8.763 1.3208,0 2.3368,0.254 3.3782,0.8382 l 0.7366,3.7846 h 1.1684 l -0.0762,-4.064 c -1.5748,-0.9398 -3.175,-1.4732 -5.461,-1.4732 -5.5626,0 -9.398,3.8862 -9.398,9.652 0,5.7912 3.7338,9.6774 9.2964,9.6774 2.2352,0 3.937,-0.4826 5.8928,-1.6256 v -1.3208 c 0,-2.0066 0.0254,-3.7338 0.0508,-5.3594 l 1.8542,-0.2032 v -0.762 h -7.112 z m 15.112981,8.4836 c 2.285999,0 3.987799,-1.0414 5.105399,-2.7686 l -0.4064,-0.3556 c -1.0414,1.2192 -2.3368,1.8542 -4.140199,1.8542 -2.794,0 -4.7752,-1.7526 -4.826,-5.7912 h 9.143999 c 0.127,-0.4064 0.1778,-0.9144 0.1778,-1.524 0,-2.9972 -1.9558,-5.2832 -5.257799,-5.2832 -3.3782,0 -6.2738,2.6924 -6.2738,6.9596 0,4.5974 2.7178,6.9088 6.477,6.9088 z m -4.2418,-7.8486 c 0.1778,-3.302 1.8796,-5.207 3.9878,-5.207 2.0574,0 3.276599,1.5748 3.276599,3.7338 0,1.016 -0.254,1.4732 -1.142999,1.4732 z m 22.225021,7.4676 h 4.1402 v -0.7112 l -1.9558,-0.2032 -0.0508,-4.9022 v -2.8702 c 0,-3.429 -1.3208,-4.8006 -3.5306,-4.8006 -1.6764,0 -3.3782,0.8128 -5.1054,2.7686 l -0.127,-2.4892 -0.3302,-0.2032 -3.9116,1.016 v 0.6604 l 2.2352,0.1016 c 0.0508,1.27 0.0762,2.54 0.0762,4.2926 v 1.524 l -0.0508,4.9022 -2.1082,0.2032 v 0.7112 h 6.223 v -0.7112 l -1.9304,-0.2032 -0.0508,-4.9022 v -4.0894 c 1.6764,-1.7018 3.1496,-2.2098 4.2164,-2.2098 1.4732,0 2.3368,0.8636 2.3368,3.3782 v 2.921 l -0.0508,4.8768 -2.1082,0.2286 v 0.7112 z m 12.699983,0.381 c 2.286,0 3.9878,-1.0414 5.1054,-2.7686 l -0.4064,-0.3556 c -1.0414,1.2192 -2.3368,1.8542 -4.1402,1.8542 -2.794,0 -4.7752,-1.7526 -4.826,-5.7912 h 9.144 c 0.127,-0.4064 0.1778,-0.9144 0.1778,-1.524 0,-2.9972 -1.9558,-5.2832 -5.2578,-5.2832 -3.3782,0 -6.2738,2.6924 -6.2738,6.9596 0,4.5974 2.7178,6.9088 6.477,6.9088 z m -4.2418,-7.8486 c 0.1778,-3.302 1.8796,-5.207 3.9878,-5.207 2.0574,0 3.2766,1.5748 3.2766,3.7338 0,1.016 -0.254,1.4732 -1.143,1.4732 z m 13.589022,7.4676 h 4.6228 v -0.7112 l -2.413,-0.254 -0.0508,-4.8514 v -2.3622 c 0.762,-2.0574 1.7018,-3.2766 3.048,-3.9116 l 0.2286,0.2286 c 0.5842,0.6096 1.016,0.9652 1.6764,0.9652 0.889,0 1.2954,-0.5588 1.3208,-1.4478 -0.254,-0.7366 -1.0668,-1.143 -2.032,-1.143 -1.7018,0 -3.4036,1.4732 -4.2418,3.7846 l -0.1524,-3.5052 -0.3302,-0.2032 -3.9116,1.016 v 0.6604 l 2.2352,0.1016 c 0.0508,1.27 0.0762,2.54 0.0762,4.2926 v 1.524 l -0.0508,4.8768 -2.1336,0.2286 v 0.7112 z m 19.938987,0.3556 c 0.9906,0 1.7526,-0.4064 2.286,-1.2954 l -0.4064,-0.381 c -0.4064,0.4572 -0.7112,0.6096 -1.143,0.6096 -0.6858,0 -1.0668,-0.4318 -1.0668,-2.032 v -6.2738 c 0,-3.1496 -1.4224,-4.4704 -4.368798,-4.4704 -2.8702,0 -4.7498,1.2446 -5.2578,3.3274 0.1524,0.5842 0.5334,0.9144 1.1176,0.9144 0.635,0 1.0668,-0.3302 1.2192,-1.2446 l 0.381,-1.8288 c 0.6858,-0.254 1.3208,-0.381 1.9812,-0.381 2.006598,0 2.895598,0.762 2.895598,3.5814 v 1.0414 c -1.1176,0.254 -2.311398,0.5842 -3.378198,0.9144 -3.3528,0.9652 -4.5466,2.2606 -4.5466,4.2418 0,2.1082 1.4986,3.302 3.5052,3.302 1.8288,0 2.9718,-0.8382 4.470398,-2.4638 0.2032,1.524 0.9144,2.4384 2.3114,2.4384 z m -2.3622,-3.2258 c -1.600198,1.524 -2.514598,2.0066 -3.530598,2.0066 -1.4224,0 -2.3622,-0.8128 -2.3622,-2.3876 0,-1.397 0.8382,-2.4892 2.9718,-3.2766 0.8636,-0.3302 1.879598,-0.6096 2.920998,-0.889 z m 10.89658,3.2512 c 1.3208,0 2.3114,-0.4572 3.0226,-1.3208 l -0.381,-0.4318 c -0.6858,0.4064 -1.1684,0.635 -1.9304,0.635 -1.1176,0 -1.7272,-0.6858 -1.7272,-2.2606 v -9.1694 h 3.6576 v -0.9398 h -3.6576 l 0.1016,-3.9624 h -1.397 l -0.7112,3.9116 -2.6162,0.2286 v 0.762 h 2.54 v 6.9088 c 0,0.9144 -0.0254,1.4478 -0.0254,2.2606 0,2.286 0.9906,3.3782 3.1242,3.3782 z m 10.87122,0 c 3.3782,0 6.35,-2.3368 6.35,-6.9342 0,-4.572 -3.0734,-6.9342 -6.35,-6.9342 -3.2512,0 -6.3246,2.3876 -6.3246,6.9342 0,4.572 2.9718,6.9342 6.3246,6.9342 z m 0,-0.7874 c -2.5146,0 -4.064,-2.159 -4.064,-6.1214 0,-3.9624 1.5494,-6.1468 4.064,-6.1468 2.5146,0 4.064,2.1844 4.064,6.1468 0,3.9624 -1.5494,6.1214 -4.064,6.1214 z m 10.74422,0.4064 h 4.6228 v -0.7112 l -2.413,-0.254 -0.0508,-4.8514 v -2.3622 c 0.762,-2.0574 1.7018,-3.2766 3.048,-3.9116 l 0.2286,0.2286 c 0.5842,0.6096 1.016,0.9652 1.6764,0.9652 0.889,0 1.2954,-0.5588 1.3208,-1.4478 -0.254,-0.7366 -1.0668,-1.143 -2.032,-1.143 -1.7018,0 -3.4036,1.4732 -4.2418,3.7846 l -0.1524,-3.5052 -0.3302,-0.2032 -3.9116,1.016 v 0.6604 l 2.2352,0.1016 c 0.0508,1.27 0.0762,2.54 0.0762,4.2926 v 1.524 l -0.0508,4.8768 -2.1336,0.2286 v 0.7112 z"
       id="text10"
       aria-label="Generator" />
    <path
       style="font-size:19.7556px;font-family:Monospace;-inkscape-font-specification:Monospace;fill:#222b00;stroke-width:0.5"
       d="m 39.234834,31.418375 v 1.337302 q -0.739569,0 -1.347433,0.151966 -0.597734,0.141835 -0.932059,0.496423 -0.334326,0.354588 -0.273539,0.972583 l 0.425505,4.153742 q 0.131704,1.276516 -0.364719,1.904642 -0.486292,0.628127 -1.529793,0.820618 1.063764,0.19249 1.550055,0.790224 0.486292,0.587602 0.344457,1.935035 l -0.425505,4.153742 q -0.06079,0.628127 0.273539,0.982714 0.334325,0.354588 0.932059,0.496423 0.597733,0.141835 1.347433,0.141835 v 1.337302 q -1.134681,0 -2.127526,-0.273539 -0.992846,-0.273539 -1.560186,-0.962452 -0.56734,-0.678782 -0.425505,-1.924905 l 0.405243,-3.849809 q 0.08105,-0.688913 -0.131704,-1.165074 -0.202622,-0.486291 -0.891535,-0.729437 -0.678782,-0.253277 -2.036346,-0.253277 v -1.357565 q 1.357564,0 2.036346,-0.243145 0.688913,-0.243146 0.891535,-0.719307 0.212752,-0.47616 0.131704,-1.165074 l -0.405243,-3.870071 q -0.131704,-1.246123 0.425505,-1.924905 0.56734,-0.688913 1.560186,-0.962452 0.992845,-0.273539 2.127526,-0.273539 z m 11.346815,1.752676 q 0.861141,0 1.560186,0.151966 0.699044,0.151967 1.327171,0.425506 l -0.547078,1.266384 Q 52.405243,34.792024 51.81764,34.680582 51.240169,34.56914 50.632304,34.56914 q -2.238968,0 -2.238968,1.772938 v 2.168051 h 3.616795 l -0.18236,1.337302 h -3.434435 v 8.499973 h -1.702021 v -8.499973 h -2.5429 v -1.337302 h 2.5429 v -2.127526 q 0,-0.992846 0.506554,-1.712152 0.516685,-0.719307 1.398089,-1.104288 0.881403,-0.395112 1.985691,-0.395112 z m 9.898071,0.253277 q 0.56734,0 0.901665,0.344457 0.344457,0.344456 0.344457,0.840879 0,0.516685 -0.344457,0.871273 -0.334325,0.344456 -0.901665,0.344456 -0.536947,0 -0.881404,-0.344456 -0.344457,-0.354588 -0.344457,-0.871273 0,-0.496423 0.344457,-0.840879 0.344457,-0.344457 0.881404,-0.344457 z m 1.357564,5.085801 v 8.489842 h 3.00893 v 1.347433 h -8.003551 v -1.347433 h 3.2926 v -7.15254 h -3.191289 v -1.337302 z m 15.429637,-1.965429 0.526816,1.60071 q -0.688913,0.212753 -1.458875,0.263408 -0.759831,0.05066 -1.661497,0.05066 1.853987,0.851011 1.853987,2.684736 0,1.580448 -1.063763,2.603687 -1.053632,1.023238 -2.948143,1.023238 -0.536947,0 -0.901666,-0.05066 -0.354588,-0.05065 -0.688913,-0.151966 -0.243146,0.172228 -0.405243,0.455898 -0.151967,0.273539 -0.151967,0.577472 0,0.384981 0.303933,0.638257 0.303932,0.253277 1.124549,0.253277 h 1.924905 q 1.073894,0 1.924904,0.384981 0.851011,0.384981 1.347434,1.043501 0.496422,0.648389 0.496422,1.469006 0,1.570317 -1.337302,2.411197 -1.327171,0.840879 -3.758629,0.840879 -1.702021,0 -2.684736,-0.354588 -0.982714,-0.344456 -1.408219,-1.063763 -0.415374,-0.709175 -0.415374,-1.7932 h 1.539923 q 0,0.617995 0.243146,1.023238 0.243146,0.405244 0.881404,0.597734 0.638258,0.202622 1.833725,0.202622 1.762807,0 2.573293,-0.445768 0.810486,-0.435636 0.810486,-1.306909 0,-0.759831 -0.688913,-1.144811 -0.688913,-0.384981 -1.722283,-0.384981 h -1.904642 q -1.387958,0 -2.036347,-0.607865 -0.648389,-0.607865 -0.648389,-1.398089 0,-1.094156 1.175205,-1.864118 -1.7932,-0.952321 -1.7932,-2.948143 0,-1.084025 0.536947,-1.914774 0.536947,-0.840879 1.499399,-1.31704 0.962452,-0.47616 2.218706,-0.47616 1.347433,0 2.188312,-0.111442 0.84088,-0.111442 1.438613,-0.314064 0.607865,-0.202621 1.235992,-0.47616 z m -4.862917,2.147788 q -1.286647,0 -1.904643,0.699044 -0.607864,0.699045 -0.607864,1.762808 0,1.084025 0.617995,1.783069 0.628127,0.699045 1.935036,0.699045 1.12455,0 1.722283,-0.65852 0.597734,-0.65852 0.597734,-1.833725 0,-2.451721 -2.360541,-2.451721 z M 82.454043,37.67938 v 7.557784 q 0,1.053632 0.435636,1.519661 0.435636,0.46603 1.357564,0.46603 0.881404,0 1.661497,-0.496423 0.790224,-0.506554 1.22586,-1.195467 V 37.67938 h 1.702021 v 10.668024 h -1.448744 l -0.141835,-1.438612 q -0.628127,0.810486 -1.560186,1.246122 -0.921928,0.425505 -1.853987,0.425505 -1.550055,0 -2.320016,-0.820617 -0.759831,-0.830748 -0.759831,-2.320017 V 37.67938 Z m 10.556592,10.668024 v -1.306908 h 1.661497 V 38.986289 H 93.010635 V 37.67938 h 2.958275 l 0.314063,2.522639 q 0.617996,-1.31704 1.4994,-2.036347 0.881403,-0.719306 2.330147,-0.719306 0.44577,0 0.79022,0.07092 0.35459,0.06079 0.71931,0.162097 l -0.24315,3.606664 h -1.398084 v -2.269361 q -0.04052,0 -0.09118,0 -2.451721,0 -3.515484,3.505352 v 4.518461 h 2.16805 v 1.306908 z m 13.393285,-4.731212 q 0.0709,1.853987 0.97259,2.704997 0.91179,0.840879 2.14778,0.840879 0.82062,0 1.47914,-0.243145 0.65852,-0.243146 1.3677,-0.719307 l 0.80035,1.12455 q -0.73957,0.587602 -1.70202,0.921928 -0.96245,0.334325 -1.96543,0.334325 -1.56018,0 -2.65434,-0.699044 -1.08403,-0.699044 -1.6615,-1.945167 -0.56734,-1.256253 -0.56734,-2.907619 0,-1.620972 0.56734,-2.877226 0.57747,-1.256253 1.62098,-1.97556 1.05363,-0.719306 2.47198,-0.719306 2.01608,0 3.17102,1.398088 1.16508,1.398089 1.16508,3.829547 0,0.27354 -0.0203,0.516685 -0.0101,0.243146 -0.0203,0.415375 z m 2.89749,-4.761607 q -1.18534,0 -1.98569,0.84088 -0.80036,0.840879 -0.90167,2.603687 h 5.56196 q -0.0304,-1.712152 -0.7497,-2.573294 -0.7193,-0.871273 -1.9249,-0.871273 z m 8.8951,-7.43621 q 1.13468,0 2.12752,0.273539 0.99285,0.273539 1.56019,0.962452 0.56734,0.678782 0.4255,1.924905 l -0.40524,3.870071 q -0.11144,1.03337 0.53695,1.580448 0.64839,0.547078 2.52264,0.547078 v 1.357565 q -1.86412,0 -2.52264,0.557209 -0.64839,0.557209 -0.53695,1.590579 l 0.40524,3.849809 q 0.13171,1.246123 -0.43563,1.924905 -0.55721,0.688913 -1.55006,0.962452 -0.99284,0.273539 -2.12752,0.273539 v -1.337302 q 0.73956,0 1.3373,-0.141835 0.60786,-0.141835 0.94219,-0.496423 0.33432,-0.354587 0.27354,-0.982714 l -0.42551,-4.153742 q -0.14183,-1.347433 0.36472,-1.935035 0.51669,-0.587603 1.75268,-0.769962 -1.19547,-0.202622 -1.72229,-0.830749 -0.52681,-0.638257 -0.39511,-1.914773 l 0.42551,-4.153742 q 0.0608,-0.617995 -0.27354,-0.972583 -0.33433,-0.354588 -0.93206,-0.496423 -0.59773,-0.151966 -1.34743,-0.151966 z"
       id="text3"
       inkscape:label="figure"
       aria-label="{figure}" />
    <path
       style="font-size:25.4px;font-family:serif;-inkscape-font-specification:serif;fill:#222b00;stroke-width:0.5"
       d="m 27.961305,26.871429 h 13.7414 l 0.2032,-4.902199 h -1.0668 l -0.8636,4.038599 h -9.525 l 10.9982,-16.7893993 v -0.8382 h -12.8778 l -0.2286,4.8260003 h 1.1176 l 0.762,-3.9370003 h 8.763 l -11.0236,16.7639993 z m 92.964105,0 h 4.1402 v -0.7112 l -1.9304,-0.2032 -0.0508,-4.902199 v -2.8956 c 0,-3.4036 -1.27,-4.7752 -3.6068,-4.7752 -1.7526,0 -3.3782,0.8636 -4.9276,2.7432 -0.4318,-1.9304 -1.5494,-2.7432 -3.2512,-2.7432 -1.7272,0 -3.302,0.9398 -4.85139,2.7432 l -0.127,-2.4638 -0.3302,-0.2032 -3.9116,1.016 v 0.635 l 2.2352,0.127 c 0.0508,1.27 0.0762,2.54 0.0762,4.2672 v 1.5494 l -0.0508,4.902199 -2.1082,0.2032 v 0.7112 h 6.22299 v -0.7112 l -1.93039,-0.2032 -0.0508,-4.902199 v -4.064 c 1.54939,-1.6256 2.87019,-2.2352 4.03859,-2.2352 1.3716,0 2.2098,0.9398 2.2098,3.429 v 2.8702 l -0.0508,4.902199 -2.1082,0.2032 v 0.7112 h 6.1976 v -0.7112 l -1.9558,-0.2032 -0.0508,-4.902199 v -2.8702 c 0,-0.4572 -0.0254,-0.889 -0.0762,-1.2954 1.524,-1.6002 2.8956,-2.1336 4.0386,-2.1336 1.4478,0 2.3114,0.8382 2.3114,3.429 v 2.8702 c 0,1.4224 -0.0254,3.479799 -0.0508,4.902199 l -2.0828,0.2032 v 0.7112 z"
       id="text4"
       inkscape:label="zoom"
       aria-label="Z         m" />
    <path
       id="path10"
       style="fill:none;stroke:#222b00;stroke-width:1.6;stroke-linecap:round;stroke-linejoin:bevel;stroke-dasharray:1.6, 3.2;stroke-dashoffset:0"
       d="M 85.03,14.34 71.98,2.65 m 13,24.27 -12.86,-0.14 M 47.98,2.7 H 72.12 V 26.83 H 47.98 Z M 84.93,14.37 H 97.58 V 27.02 H 84.93 Z"
       sodipodi:nodetypes="cccccccccccccc" />
  </g>
</svg>
